<svg width="696" height="744" viewBox="0 0 696 744" fill="none" xmlns="http://www.w3.org/2000/svg">
<path d="M69 0H220V19H69V0Z" fill="#E2E5E7"/>
<path d="M220 0H304V19H220V0Z" fill="#CAD0D5"/>
<path d="M377 0H528V19H377V0Z" fill="#E2E5E7"/>
<path d="M528 0H612V19H528V0Z" fill="#CAD0D5"/>
<rect x="69" y="19" width="151" height="725" fill="#ECEFF1"/>
<rect x="118" y="94" width="15" height="83" fill="#5D9FC3"/>
<rect x="133" y="94" width="38" height="83" fill="#5D97BB"/>
<rect x="118" y="177" width="53" height="12" fill="#CAD0D5"/>
<rect x="118" y="252" width="15" height="83" fill="#5D9FC3"/>
<rect x="133" y="252" width="38" height="83" fill="#5D97BB"/>
<rect x="118" y="335" width="53" height="12" fill="#CAD0D5"/>
<rect x="118" y="411" width="15" height="83" fill="#5D9FC3"/>
<rect x="133" y="411" width="38" height="83" fill="#5D97BB"/>
<rect x="118" y="494" width="53" height="12" fill="#CAD0D5"/>
<rect x="118" y="569" width="15" height="83" fill="#5D9FC3"/>
<rect x="133" y="569" width="38" height="83" fill="#5D97BB"/>
<rect x="118" y="652" width="53" height="12" fill="#CAD0D5"/>
<rect x="377" y="19" width="151" height="725" fill="#ECEFF1"/>
<rect x="426" y="94" width="15" height="83" fill="#5D9FC3"/>
<rect x="441" y="94" width="38" height="83" fill="#5D97BB"/>
<rect x="426" y="177" width="53" height="12" fill="#CAD0D5"/>
<rect x="426" y="252" width="15" height="83" fill="#5D9FC3"/>
<rect x="441" y="252" width="38" height="83" fill="#5D97BB"/>
<rect x="426" y="335" width="53" height="12" fill="#CAD0D5"/>
<rect x="426" y="411" width="15" height="83" fill="#5D9FC3"/>
<rect x="441" y="411" width="38" height="83" fill="#5D97BB"/>
<rect x="426" y="494" width="53" height="12" fill="#CAD0D5"/>
<rect x="426" y="569" width="15" height="83" fill="#5D9FC3"/>
<rect x="441" y="569" width="38" height="83" fill="#5D97BB"/>
<rect x="426" y="652" width="53" height="12" fill="#CAD0D5"/>
<rect x="220" y="19" width="157" height="18" fill="#5C90BA"/>
<rect x="220" y="37" width="43" height="98" fill="#6CA8C7"/>
<rect x="263" y="37" width="35" height="98" fill="#6CA0C0"/>
<rect x="298" y="37" width="22" height="98" fill="#6CA8C7"/>
<rect x="320" y="37" width="57" height="98" fill="#6CA0C0"/>
<rect x="220" y="135" width="157" height="10" fill="#6A91AC"/>
<rect x="220" y="643" width="43" height="101" fill="#6CA8C7"/>
<rect x="263" y="643" width="35" height="101" fill="#6CA0C0"/>
<rect x="298" y="643" width="22" height="101" fill="#6CA8C7"/>
<rect x="320" y="643" width="57" height="101" fill="#6CA0C0"/>
<rect x="220" y="145" width="43" height="150.63" fill="#6CA8C7"/>
<rect x="263" y="145" width="35" height="150.63" fill="#6CA0C0"/>
<rect x="298" y="145" width="22" height="150.63" fill="#6CA8C7"/>
<rect x="320" y="145" width="57" height="150.63" fill="#6CA0C0"/>
<rect x="220" y="295.63" width="157" height="15.3704" fill="#6A91AC"/>
<rect x="220" y="311" width="43" height="150.63" fill="#6CA8C7"/>
<rect x="263" y="311" width="35" height="150.63" fill="#6CA0C0"/>
<rect x="298" y="311" width="22" height="150.63" fill="#6CA8C7"/>
<rect x="320" y="311" width="57" height="150.63" fill="#6CA0C0"/>
<rect x="220" y="461.63" width="157" height="15.3704" fill="#6A91AC"/>
<rect x="220" y="477" width="43" height="150.63" fill="#6CA8C7"/>
<rect x="263" y="477" width="35" height="150.63" fill="#6CA0C0"/>
<rect x="298" y="477" width="22" height="150.63" fill="#6CA8C7"/>
<rect x="320" y="477" width="57" height="150.63" fill="#6CA0C0"/>
<rect x="220" y="627.63" width="157" height="15.3704" fill="#6A91AC"/>
<rect x="528" y="19" width="84" height="707" fill="#DFE2E4"/>
<path d="M69 699H220V718H69V699Z" fill="#E2E5E7"/>
<path d="M377 699H528V718H377V699Z" fill="#E2E5E7"/>
<path d="M528 699H612V718H528V699Z" fill="#CAD0D5"/>
<rect x="580" y="669" width="8" height="38" fill="#9D7B6C"/>
<ellipse cx="584.5" cy="609.5" rx="14.5" ry="63.5" fill="#6AAC80"/>
<rect x="644" y="688" width="8" height="38" fill="#9D7B6C"/>
<ellipse cx="648.5" cy="628.5" rx="14.5" ry="63.5" fill="#6AAC80"/>
<rect x="32" y="680" width="8" height="38" fill="#9D7B6C"/>
<ellipse cx="36.5" cy="620.5" rx="14.5" ry="63.5" fill="#6AAC80"/>
<rect y="718" width="696" height="26" rx="13" fill="#6CB886"/>
<circle cx="367" cy="718" r="17" fill="#6CB886"/>
<circle cx="581" cy="718" r="22" fill="#6CB886"/>
<circle cx="612" cy="721" r="14" fill="#6CB886"/>
<circle cx="637" cy="721" r="8" fill="#6CB886"/>
<circle cx="660" cy="721" r="12" fill="#6CB886"/>
<circle cx="392" cy="722" r="11" fill="#6CB886"/>
<circle cx="62" cy="718" r="11" fill="#6CB886"/>
</svg>
