<?xml version="1.0" standalone="no"?>
<!DOCTYPE svg PUBLIC "-//W3C//DTD SVG 20010904//EN"
 "http://www.w3.org/TR/2001/REC-SVG-20010904/DTD/svg10.dtd">
<svg version="1.0" xmlns="http://www.w3.org/2000/svg"
 width="512.000000pt" height="512.000000pt" viewBox="0 0 512.000000 512.000000"
 preserveAspectRatio="xMidYMid meet">

<g transform="translate(0.000000,512.000000) scale(0.100000,-0.100000)"
fill="#000000" stroke="none">
<path d="M675 4270 c-164 -33 -312 -143 -388 -288 -71 -134 -67 -51 -67 -1422
0 -1371 -4 -1287 67 -1423 66 -126 184 -223 333 -273 53 -18 124 -19 1940 -19
l1885 0 68 24 c141 48 262 153 328 283 62 122 59 56 59 1408 0 1371 4 1288
-67 1422 -64 123 -168 211 -312 267 l-66 26 -1870 1 c-1029 1 -1888 -2 -1910
-6z m3525 -427 c-1 -8 -1593 -1141 -1610 -1146 -10 -2 -1519 1134 -1519 1146
-1 4 703 7 1564 7 861 0 1565 -3 1565 -7z m-2880 -740 c360 -272 791 -598 956
-724 l302 -228 942 670 c518 368 944 669 946 669 2 0 4 -474 4 -1052 0 -983
-1 -1055 -18 -1087 -9 -19 -30 -44 -45 -55 l-28 -21 -1819 0 -1819 0 -28 21
c-15 11 -36 36 -45 55 -17 32 -18 107 -18 1142 0 609 3 1107 8 1107 4 0 302
-224 662 -497z"/>
</g>
</svg>
